<svg width="60" height="49" viewBox="0 0 60 49" fill="none" xmlns="http://www.w3.org/2000/svg">
<path d="M48.4381 0.131836C49.4409 0.131836 50.4436 0.270147 51.3772 0.58135C51.8613 0.719662 52.3109 0.92713 52.7604 1.16918C53.2099 1.41122 53.6248 1.65327 54.0398 1.96447C54.835 2.58687 55.4575 3.31301 55.907 4.07373C56.3219 4.79987 56.5985 5.62974 56.6677 6.49419C56.7368 7.32406 56.5985 8.18851 56.2873 8.94923C55.9415 9.7791 55.3883 10.5398 54.6967 11.1276C54.3164 11.4388 53.936 11.75 53.4865 11.9921C53.0716 12.2341 52.5875 12.4416 52.138 12.6145C51.6539 12.7874 51.1698 12.8911 50.6857 12.9949C49.925 13.1332 49.1988 13.1332 48.4381 13.0986C47.712 13.0294 46.9858 12.8911 46.2943 12.6837L39.8282 18.2853C40.2777 19.0114 40.6235 19.7376 40.8655 20.5329C41.3496 22.0889 41.3496 23.7486 40.9001 25.3046C40.6581 26.1345 40.3123 26.8952 39.8628 27.6214L46.7784 33.5342C47.5737 33.223 48.4381 33.0155 49.3026 32.9464C50.1324 32.8772 50.9623 32.9118 51.7922 33.0501C52.8987 33.223 53.936 33.6034 54.9042 34.1566C55.3883 34.4332 55.8724 34.7444 56.2873 35.1248C57.1172 35.8163 57.8433 36.6808 58.3274 37.649C58.8115 38.5826 59.0881 39.5508 59.1573 40.5535C59.2265 41.5563 59.0881 42.5591 58.7424 43.4927C58.362 44.4954 57.7742 45.3945 57.0135 46.1206C56.5985 46.501 56.1836 46.8467 55.6995 47.1579C55.2154 47.4691 54.7313 47.7112 54.2126 47.8841C53.694 48.0915 53.1407 48.2299 52.6221 48.3336C50.3745 48.714 48.0232 48.299 46.0522 47.1579C45.5336 46.8467 45.084 46.501 44.6345 46.1206C43.943 45.4982 43.3551 44.8066 42.9056 43.9768C42.4907 43.2506 42.1795 42.4208 42.0412 41.5909C41.9029 40.7956 41.9029 39.9657 42.0066 39.1358C42.1449 38.3405 42.4215 37.5452 42.8365 36.8191L36.1975 31.0446C35.7134 31.3212 35.2293 31.5633 34.7106 31.7707C34.192 31.9782 33.6733 32.1511 33.1546 32.2894C32.0827 32.566 30.9762 32.7043 29.9043 32.7043C28.9707 32.7043 28.0717 32.6006 27.1381 32.4277C26.239 32.2202 25.3746 31.9436 24.5447 31.5633L17.4216 37.7873C17.6983 38.4789 17.8366 39.205 17.8711 39.9311C17.9057 40.6573 17.8366 41.418 17.6637 42.1441C17.4562 42.9048 17.1796 43.5964 16.7646 44.2534C16.3151 44.945 15.7965 45.6019 15.1741 46.1552C14.7245 46.5355 14.275 46.8813 13.7564 47.1925C11.7854 48.3682 9.43411 48.7831 7.18654 48.3682C6.63329 48.2644 6.11462 48.1261 5.59595 47.9187C5.07728 47.7112 4.59319 47.4691 4.10909 47.1925C3.625 46.8813 3.21007 46.5355 2.79513 46.1552C2.03441 45.429 1.44659 44.53 1.06623 43.5272C0.720448 42.5936 0.582136 41.5909 0.651292 40.5881C0.720448 39.5854 0.997072 38.6172 1.48116 37.6836C1.99983 36.7154 2.6914 35.8509 3.52127 35.1594C4.38572 34.4332 5.38848 33.88 6.42582 33.4996C7.80894 33.0155 9.2958 32.8426 10.7827 33.0155C11.5434 33.1193 12.2695 33.2922 12.9611 33.5688C13.3068 33.7071 13.6526 33.8454 13.9984 34.0529L20.5682 28.3821C19.9458 27.5868 19.4617 26.6878 19.116 25.7196C18.4935 23.8869 18.5281 21.916 19.1851 20.0834C19.5309 19.1497 20.015 18.2853 20.6374 17.49L14.6208 12.3033C13.9984 12.5799 13.376 12.7874 12.719 12.9257C11.5779 13.1677 10.3677 13.2023 9.22664 12.9949C8.74255 12.9257 8.22388 12.7874 7.77436 12.6145C7.29027 12.4416 6.84076 12.2341 6.42582 11.9921C6.01088 11.75 5.59595 11.4734 5.21559 11.1276C4.52403 10.5398 3.97078 9.7791 3.625 8.94923C3.3138 8.18851 3.17549 7.32406 3.24464 6.49419C3.3138 5.66432 3.55585 4.83445 4.00536 4.07373C4.48945 3.24386 5.11186 2.5523 5.87257 1.96447C6.28751 1.65327 6.70244 1.37664 7.15196 1.16918C7.60147 0.92713 8.05099 0.75424 8.53508 0.58135C9.46869 0.270147 10.4714 0.131836 11.4742 0.131836C11.9583 0.131836 12.477 0.166414 12.9611 0.23557C13.4452 0.304726 13.9293 0.443037 14.3788 0.58135C14.8283 0.719662 15.2778 0.92713 15.6927 1.16918C16.1077 1.41122 16.5226 1.65327 16.8684 1.96447C17.4216 2.44856 17.8711 2.96723 18.2169 3.55506C18.9085 4.66156 19.1505 5.97552 18.9085 7.25491C18.8048 7.91189 18.5627 8.53429 18.2169 9.12212L24.4755 14.4471C25.7549 13.8593 27.1381 13.4444 28.5212 13.3061C30.0772 13.1332 31.6678 13.2369 33.2238 13.6518C33.7425 13.7902 34.2957 13.963 34.7798 14.1705C35.2985 14.378 35.7826 14.62 36.2667 14.8967L42.1449 9.84826C41.6608 9.26043 41.315 8.56887 41.1076 7.84273C40.9001 7.15117 40.8309 6.42504 40.9001 5.73347C40.9693 5.04191 41.1767 4.35035 41.5571 3.69337C41.9374 3.00181 42.4215 2.41398 43.0094 1.92989C43.3897 1.61869 43.7701 1.34207 44.185 1.1346C44.6 0.892552 45.0495 0.719662 45.499 0.546772C45.9485 0.40846 46.4326 0.270147 46.9167 0.200991C47.4699 0.166413 47.954 0.131836 48.4381 0.131836Z" fill="#FF6A00"/>
</svg>
