<svg width="962" height="156" viewBox="0 0 962 156" fill="none" xmlns="http://www.w3.org/2000/svg">
<path d="M208.311 155.691C194.479 155.74 183.785 149.809 176.82 138.142C162.495 114.172 148.639 89.9319 134.561 65.8146C131.868 61.1823 131.572 56.6235 136.536 53.6333C141.871 50.4226 145.304 53.903 147.873 58.2902C161.606 81.7947 175.239 105.324 189.046 128.804C195.591 139.956 208.039 143.779 218.462 138.142C229.008 132.431 232.392 119.27 225.822 107.824C211.571 82.9957 197.097 58.3147 182.698 33.5846C182.229 32.7758 181.611 32.065 181.093 31.2807C166.891 10.129 145.551 10.3251 132.362 32.2611C114.407 62.1872 97.0681 92.4809 79.458 122.603C76.1731 128.216 73.1352 134 69.4304 139.367C57.8961 156.132 35.5439 160.911 18.4278 150.544C1.23752 140.152 -5.23352 118.118 4.64593 100.544C21.2928 70.937 38.4336 41.5992 55.6238 12.3104C62.5641 0.472307 76.099 -3.25313 86.9417 2.99678C98.2783 9.54081 101.464 22.8004 94.4006 35.0552C81.261 57.8245 67.9237 80.4957 54.7841 103.265C51.9437 108.191 48.2884 111.035 42.83 107.946C37.2481 104.785 38.236 99.9562 40.9776 95.2504C53.9443 72.8978 66.8617 50.5206 79.9767 28.2906C82.57 23.8789 83.7555 19.8103 78.8158 16.8691C73.5056 13.7074 70.7147 17.7025 68.3683 21.7465C52.3142 49.5403 36.2354 77.334 20.206 105.128C13.0434 117.554 16.0073 131.034 27.171 137.333C38.1125 143.485 51.0546 139.515 58.2172 127.333C78.0255 93.6328 97.5374 59.7852 117.346 26.0847C125.348 12.4819 136.24 2.16346 152.813 0.325249C172.399 -1.83158 185.341 8.70749 194.677 24.173C207.298 45.0795 219.4 66.3293 231.552 87.5299C235.8 94.9563 241.16 101.819 243.333 110.373C249.286 133.828 232.54 155.544 208.237 155.691H208.311Z" fill="#FCB813"/>
<path d="M468 8.43237V147.567H428.189V76.151L377.352 112.437L326.515 76.151V147.567H286.703V8.43237L377.352 71.2974C405.526 51.421 440.438 27.8466 468 8.43237Z" fill="white"/>
<path d="M286.703 126.487H326.494V134.919H286.703V126.487Z" fill="#FCB813"/>
<path d="M613.678 147.568L602.919 130.703H539.676C536.334 136.24 532.259 142.491 528.917 147.568H484.865L571.45 8.43237L657.73 147.568H613.678ZM556.867 100.728H586.032C580.564 91.7289 577.526 86.8834 571.45 76.5002L556.867 100.728Z" fill="white"/>
<path d="M556.541 101.189H586.055V109.622H556.541V101.189Z" fill="#FCB813"/>
<path d="M657.73 8.43237H700.708L719.084 39.8128L742.203 79.4997L758.801 50.6575L772.139 27.8144C775.103 22.0459 780.142 13.9701 783.105 8.43237H826.379L742.203 147.568L657.73 8.43237Z" fill="white"/>
<path d="M760.059 118.054H724.298L741.916 147.567L760.059 118.054Z" fill="#FCB813"/>
<path d="M961.298 36.3087H882.396V62.4582H957.712V89.1011H882.396V119.691H961.298V147.568H843.244V8.43237H961.298V36.3087Z" fill="white"/>
<path d="M948.649 62.4414H957.724V89.0676H948.649V62.4414Z" fill="#FCB813"/>
</svg>
